<svg id="Capa_1" data-name="Capa 1" xmlns="http://www.w3.org/2000/svg" viewBox="0 0 1920 1080"><defs><style>.cls-1,.cls-2{fill:#a375ff;}.cls-1{opacity:0.69;}</style></defs><title>footer-waves-08</title><path id="wave" class="cls-1" d="M.5,468.93l53.333,51.688c53.333,52.658,160,154.578,266.667,194.132,106.667,38.1,213.333,13.832,320-38.826,106.667-51.688,213.333-129.341,320-116.479,106.667,13.832,213.333,115.751,320,103.618s213.333-143.172,320-194.132,213.333-26.693,266.667-12.861l53.333,12.86V1012.5H.5Z"/><path id="wave-2" data-name="wave" class="cls-1" d="M-10.5,375.5l87.333,68.118c53.333,52.658,160,154.578,266.667,194.132,106.667,38.1,213.333,13.832,320-38.826,106.667-51.688,213.333-129.341,320-116.479,106.667,13.832,213.333,115.751,320,103.618s213.333-143.172,320-194.132,213.333-26.693,266.667-12.861L1919.5,394.5l1,552H-.5Z"/><path id="wave-3" data-name="wave" class="cls-2" d="M-.5,536.93l53.333,51.688c53.333,52.658,160,154.578,266.667,194.132,106.667,38.1,213.333,13.832,320-38.826,106.667-51.688,213.333-129.341,320-116.479,106.667,13.832,213.333,115.751,320,103.618s213.333-143.172,320-194.132,213.333-26.693,266.667-12.861l53.333,12.86V1080.5H-.5Z"/></svg>