<svg xmlns="http://www.w3.org/2000/svg" width="128.073" height="127.753" viewBox="0 0 128.073 127.753">
  <path id="overview_FILL1_wght400_GRAD0_opsz48" d="M221.211,312.414V297.7a3.2,3.2,0,0,0-6.4,0v15.35a4.727,4.727,0,0,0,.32,1.744,4.82,4.82,0,0,0,1.119,1.613l10.19,10.19a3.144,3.144,0,0,0,2.281,1,3.166,3.166,0,0,0,2.238-5.436Zm-3.278,31.339a30.164,30.164,0,0,1-29.98-29.9,29.2,29.2,0,0,1,8.792-21.38,30,30,0,1,1,21.187,51.28Zm-67.554-92.577h54.363a4.627,4.627,0,0,0,3.418-1.387,4.683,4.683,0,0,0,1.379-3.438,4.59,4.59,0,0,0-1.379-3.41,4.677,4.677,0,0,0-3.418-1.359H150.379a4.627,4.627,0,0,0-3.418,1.387,4.683,4.683,0,0,0-1.379,3.438,4.59,4.59,0,0,0,1.379,3.41A4.677,4.677,0,0,0,150.379,251.176Zm31.978,79.946H129.593A9.622,9.622,0,0,1,120,321.528V225.593A9.622,9.622,0,0,1,129.593,216h95.935a9.622,9.622,0,0,1,9.593,9.593v52.6a33.889,33.889,0,0,0-8.314-3.038,40.416,40.416,0,0,0-8.794-.959,36.88,36.88,0,0,0-8.474.959v-1.6a4.918,4.918,0,0,0-4.8-4.8H150.379a4.627,4.627,0,0,0-3.418,1.387,4.683,4.683,0,0,0-1.379,3.438,4.59,4.59,0,0,0,1.379,3.41,4.677,4.677,0,0,0,3.418,1.359h50.206a39.429,39.429,0,0,0-10.313,7.435,40.467,40.467,0,0,0-7.435,10.153H150.379a4.627,4.627,0,0,0-3.418,1.387,4.683,4.683,0,0,0-1.379,3.438,4.59,4.59,0,0,0,1.379,3.41,4.677,4.677,0,0,0,3.418,1.359h28.94a36.88,36.88,0,0,0-.959,8.474,39.014,39.014,0,0,0,.959,8.794A37.382,37.382,0,0,0,182.358,331.122Z" transform="translate(-120 -216)" fill="#fff"/>
</svg>