<svg xmlns="http://www.w3.org/2000/svg" width="142.001" height="111.644" viewBox="0 0 142.001 111.644">
  <path id="Sustracción_1" data-name="Sustracción 1" d="M-1815,5605.644h-15.216v-73.607h-111.571v73.607H-1957v-96.429a14.4,14.4,0,0,1,1.141-5.705,15.866,15.866,0,0,1,3.424-4.944,15.861,15.861,0,0,1,4.944-3.423,14.4,14.4,0,0,1,5.706-1.142h111.571a14.4,14.4,0,0,1,5.706,1.142,15.878,15.878,0,0,1,4.945,3.423,15.869,15.869,0,0,1,3.423,4.944,14.389,14.389,0,0,1,1.141,5.705v96.429Zm-126.786-96.43v7.607h111.571v-7.607Z" transform="translate(1957 -5494)" fill="#a375ff"/>
</svg>
