<svg xmlns="http://www.w3.org/2000/svg" width="153.5" height="121.521" viewBox="0 0 153.5 121.521">
  <path id="diversity_1_FILL1_wght400_GRAD0_opsz48" d="M42.213,216a45.172,45.172,0,0,1,19.108,4.157A46.248,46.248,0,0,1,76.75,231.51a46.248,46.248,0,0,1,15.43-11.353A45.172,45.172,0,0,1,111.288,216,42.037,42.037,0,0,1,153.5,258.212a48.516,48.516,0,0,1-2,13.591,57.8,57.8,0,0,1-6.156,13.751,17.427,17.427,0,0,0-3.6-3.278,25.1,25.1,0,0,0-4.237-2.318,51.715,51.715,0,0,0,4.8-11.033,37.839,37.839,0,0,0,1.6-10.713,32.483,32.483,0,0,0-32.619-32.619,33.086,33.086,0,0,0-17.349,5.2q-8.554,5.2-17.189,15.75-8.634-10.553-17.189-15.75a33.086,33.086,0,0,0-17.349-5.2,31.456,31.456,0,0,0-23.1,9.514,31.456,31.456,0,0,0-9.514,23.1,37.839,37.839,0,0,0,1.6,10.713,51.715,51.715,0,0,0,4.8,11.033,22.2,22.2,0,0,0-4.237,2.4,19.5,19.5,0,0,0-3.6,3.358A57.378,57.378,0,0,1,2,271.884a49.349,49.349,0,0,1-2-13.671,40.708,40.708,0,0,1,12.312-29.9A40.708,40.708,0,0,1,42.213,216ZM4.8,337.521a4.649,4.649,0,0,1-4.8-4.8v-3.678q0-6.236,6.636-10.073t17.349-3.837q1.919,0,3.758.08a26.534,26.534,0,0,1,3.6.4,26.724,26.724,0,0,0-1.919,5.6,27.947,27.947,0,0,0-.64,6.076v10.233Zm38.375,0a4.649,4.649,0,0,1-4.8-4.8v-5.436q0-10.393,10.633-16.869t27.742-6.476q17.269,0,27.822,6.476t10.553,16.869v5.436a4.649,4.649,0,0,1-4.8,4.8Zm81.547,0V327.288a27.947,27.947,0,0,0-.64-6.076,26.724,26.724,0,0,0-1.919-5.6,26.534,26.534,0,0,1,3.6-.4q1.839-.08,3.758-.08,10.713,0,17.349,3.837t6.636,10.073v3.678a4.649,4.649,0,0,1-4.8,4.8ZM23.984,310.339a10.785,10.785,0,0,1-7.915-3.278,11.195,11.195,0,0,1,0-15.83,10.784,10.784,0,0,1,7.915-3.278,11.193,11.193,0,1,1,0,22.385Zm105.531,0a11.191,11.191,0,1,1,7.915-3.278A10.785,10.785,0,0,1,129.516,310.339ZM76.75,299.146a19.188,19.188,0,1,1,13.591-32.779A19.188,19.188,0,0,1,76.75,299.146Z" transform="translate(0 -216)" fill="#707070"/>
</svg>