<svg xmlns="http://www.w3.org/2000/svg" width="133.216" height="114.185" viewBox="0 0 133.216 114.185">
  <path id="medication_liquid_FILL1_wght400_GRAD0_opsz48" d="M91.1,225.515a4.59,4.59,0,0,1-3.39-1.376,4.645,4.645,0,0,1-1.368-3.41,4.552,4.552,0,0,1,1.368-3.382A4.639,4.639,0,0,1,91.1,216H157.71a4.59,4.59,0,0,1,3.39,1.376,4.645,4.645,0,0,1,1.368,3.41,4.552,4.552,0,0,1-1.368,3.382,4.639,4.639,0,0,1-3.39,1.348ZM124.424,306.4a7.874,7.874,0,0,0,7.911-7.93v-7.93h7.93a7.93,7.93,0,1,0,0-15.859h-7.93v-7.93a7.93,7.93,0,1,0-15.859,0v7.93h-7.93a7.93,7.93,0,1,0,0,15.859h7.93v7.93a7.906,7.906,0,0,0,7.948,7.93ZM89.515,330.185A9.543,9.543,0,0,1,80,320.67V244.546a9.543,9.543,0,0,1,9.515-9.515H159.3a9.543,9.543,0,0,1,9.515,9.515V320.67a9.543,9.543,0,0,1-9.515,9.515Zm106.256,0a4.878,4.878,0,0,1-4.758-4.758V281.657a21.528,21.528,0,0,1-9.119-8.723,27.187,27.187,0,0,1-3.568-14.115q0-9.991,5.075-16.89t12.37-6.9q7.3,0,12.37,6.9t5.075,16.89a27.187,27.187,0,0,1-3.568,14.115,21.528,21.528,0,0,1-9.119,8.723v43.771a4.662,4.662,0,0,1-1.368,3.33A4.506,4.506,0,0,1,195.771,330.185Z" transform="translate(-80 -216)" fill="#fff"/>
</svg>