<svg id="Capa_1" data-name="Capa 1" xmlns="http://www.w3.org/2000/svg" viewBox="0 0 244.07 280.87"><defs><style>.cls-1{fill:#fff;}.cls-2,.cls-7{fill:none;stroke:#000;stroke-miterlimit:10;}.cls-2{stroke-width:13.79px;}.cls-3{fill:#af826f;}.cls-4{fill:#fcc;}.cls-5{fill:#010000;}.cls-6{fill:#b276ff;}.cls-7{stroke-width:3px;}</style></defs><rect class="cls-1" x="133.74" y="150.27" width="56.85" height="27.13" transform="translate(-47.53 68.1) rotate(-20.75)"/><path d="M141,164.42c.29.13,1.78-.23,2.25.18a.49.49,0,0,1,.12.47c-.93,4.91-1.31,11.22-2.64,16.05l-2.5-1.33C138.69,177.82,140.81,165,141,164.42Z"/><rect class="cls-1" x="58.82" y="152.42" width="56.85" height="27.13" transform="translate(90.1 -21.51) rotate(28.6)"/><path d="M58,172c-.16-.12-2.61-7.09-1.77-11,1-4.49,5.83-9.94,6-9.83,3.09,1.57-3.83,9.37-4.9,13.55A13.09,13.09,0,0,0,58,172Z"/><path class="cls-2" d="M38,190.42c-3,9.28,13.35,18.19,37.16,23.88,55.78,13.34,152.56,7,137.84-51.88"/><path d="M178.41,152.07c.19-.08,7.82,1.13,11,3.79,3.65,3.06,6.21,10.07,6,10.21-3,2-6.69-8-10-11A13.9,13.9,0,0,0,178.41,152.07Z"/><path class="cls-1" d="M10.36,278.42v-41h.06L31.5,267.05l-2.28-.5,21.09-29.13h0v41h-6v-28.9l.39,2.69L29.81,273.42H29.7L14.48,252.21l.88-2.47v28.68Z"/><path class="cls-1" d="M70.72,278.61A13.52,13.52,0,0,1,64,277a11.08,11.08,0,0,1-4.35-4.29,12.46,12.46,0,0,1-1.54-6.25,11.26,11.26,0,0,1,1.73-6.11,13.14,13.14,0,0,1,4.6-4.41,12.57,12.57,0,0,1,6.39-1.65A10.81,10.81,0,0,1,78.31,257a13.67,13.67,0,0,1,4.08,7.26l-18.83,6.61-1.21-3,15.36-5.67-1,.77a7.41,7.41,0,0,0-2.2-3.14,6,6,0,0,0-4-1.32,7,7,0,0,0-3.72,1,7.09,7.09,0,0,0-2.56,2.73,8.4,8.4,0,0,0-.93,4,8.68,8.68,0,0,0,1,4.13,7,7,0,0,0,2.7,2.84,7.61,7.61,0,0,0,3.94,1,8,8,0,0,0,2.89-.55,13.76,13.76,0,0,0,2.67-1.43L78.7,276a15.69,15.69,0,0,1-3.83,1.88A13.12,13.12,0,0,1,70.72,278.61Z"/><path class="cls-1" d="M98.22,279a10.41,10.41,0,0,1-5.59-1.53,10.92,10.92,0,0,1-3.95-4.33,13.63,13.63,0,0,1-1.48-6.47,13,13,0,0,1,1.56-6.56A10.83,10.83,0,0,1,93,255.92a12.1,12.1,0,0,1,6-1.44,11.21,11.21,0,0,1,3.64.61,9.62,9.62,0,0,1,5.07,3.78l-.27,1.83V235.42h5v43h-5V272.7l.59,1.44a12.71,12.71,0,0,1-4.11,3.48A11.65,11.65,0,0,1,98.22,279Zm1.38-4.72a7.85,7.85,0,0,0,6.25-2.83,7.58,7.58,0,0,0,1.51-3.06V264a7.1,7.1,0,0,0-1.57-2.92,7.73,7.73,0,0,0-2.7-2,8.56,8.56,0,0,0-3.49-.69,7.62,7.62,0,0,0-3.8,1A7.52,7.52,0,0,0,93,262.21a7.78,7.78,0,0,0-1,4.07,7.86,7.86,0,0,0,1,4.05,8.19,8.19,0,0,0,2.81,2.86A7.21,7.21,0,0,0,99.6,274.26Z"/><path class="cls-1" d="M121,247a2.56,2.56,0,0,1,1-2,3.18,3.18,0,0,1,2.12-.82,3.09,3.09,0,0,1,2.09.82,2.72,2.72,0,0,1,0,4.11,3.15,3.15,0,0,1-2.09.79,3.25,3.25,0,0,1-2.12-.79A2.55,2.55,0,0,1,121,247Zm.33,8.41h5v23h-5Z"/><path class="cls-1" d="M142.36,254.52l-.1,2,.61-1,15.1-17.1h6.38L149.1,255.57l16.12,22.85h-6.28L145.47,259l-3.11,3.27v16.15h-5v-40h5Z"/><path class="cls-1" d="M172.4,247a2.59,2.59,0,0,1,1-2,3.18,3.18,0,0,1,2.12-.82,3.07,3.07,0,0,1,2.09.82,2.72,2.72,0,0,1,0,4.11,3.13,3.13,0,0,1-2.09.79,3.25,3.25,0,0,1-2.12-.79A2.57,2.57,0,0,1,172.4,247Zm0,8.41h5v23h-5Z"/><path class="cls-1" d="M196.22,279a10.41,10.41,0,0,1-5.59-1.53,10.92,10.92,0,0,1-3.95-4.33,13.63,13.63,0,0,1-1.48-6.47,13,13,0,0,1,1.56-6.56,10.83,10.83,0,0,1,4.19-4.17,12.1,12.1,0,0,1,6-1.44,11.21,11.21,0,0,1,3.64.61,9.62,9.62,0,0,1,5.07,3.78l-.27,1.83V235.42h5v43h-5V272.7l.59,1.44a12.71,12.71,0,0,1-4.11,3.48A11.65,11.65,0,0,1,196.22,279Zm1.38-4.72a7.85,7.85,0,0,0,6.25-2.83,7.58,7.58,0,0,0,1.51-3.06V264a7.1,7.1,0,0,0-1.57-2.92,7.73,7.73,0,0,0-2.7-2,8.56,8.56,0,0,0-3.49-.69,7.62,7.62,0,0,0-3.8,1,7.52,7.52,0,0,0-2.81,2.76,7.78,7.78,0,0,0-1,4.07,7.86,7.86,0,0,0,1,4.05,8.19,8.19,0,0,0,2.81,2.86A7.21,7.21,0,0,0,197.6,274.26Z"/><path class="cls-1" d="M225.8,278.5a13.38,13.38,0,0,1-4.71-.85,9.14,9.14,0,0,1-3.77-2.56l2.15-3a11.81,11.81,0,0,0,3,2.06,7,7,0,0,0,3,.69,6.92,6.92,0,0,0,2-.28,3.11,3.11,0,0,0,1.52-.93,2.52,2.52,0,0,0,.57-1.71,2.44,2.44,0,0,0-.79-1.95,6.47,6.47,0,0,0-2-1.13c-.81-.3-1.69-.57-2.65-.83a9.69,9.69,0,0,1-4.29-2.59,5.8,5.8,0,0,1-1.49-4,6.69,6.69,0,0,1,.91-3.38,7,7,0,0,1,2.73-2.59,8.86,8.86,0,0,1,4.4-1,14.54,14.54,0,0,1,4.24.58,10.19,10.19,0,0,1,3.52,2l-2,3.19a6.32,6.32,0,0,0-2.34-1.57,6.83,6.83,0,0,0-2.45-.52,5.56,5.56,0,0,0-1.85.3,3.22,3.22,0,0,0-1.37.88,2.1,2.1,0,0,0-.53,1.46,2.16,2.16,0,0,0,.75,1.84,6.25,6.25,0,0,0,2,1.13c.8.3,1.63.59,2.47.88a12.08,12.08,0,0,1,3,1.32,6.9,6.9,0,0,1,2.12,2,5.42,5.42,0,0,1,.8,3,7.67,7.67,0,0,1-1,3.77,6.78,6.78,0,0,1-2.92,2.75A10.7,10.7,0,0,1,225.8,278.5Z"/><rect class="cls-1" x="60.4" y="154.07" width="24" height="17" transform="translate(86.65 -14.82) rotate(28.6)"/><path d="M156.65,176.11c.81-.6.4-1.24.09-1.9q-1.86-3.9-3.66-7.81c-.33-.72-.75-2.24-1.05-3,1.37,0,2.64,0,4,0,1.77,3.54,3.39,8,5.46,11.35Z"/><path class="cls-3" d="M141,163.42c.16,3.37-3,16.64-3,18-2.06.5-4.28-1.76-6.38-1.55a2.11,2.11,0,0,0,1-2.23,7.1,7.1,0,0,1,4.26-7.71,1.72,1.72,0,0,0,1-1.71C137.9,167,140.19,164.36,141,163.42Z"/><path d="M93.3,163.23c-.8,3.5-2.52,14.2-3.27,15.19-1.23.18-2.88-.58-4-1,.19-1.22,3.8-16.58,4-17C91.31,160.74,92,163.3,93.3,163.23Z"/><path class="cls-4" d="M217.68,53.27a9.58,9.58,0,0,0-14.09-5.45c-5.38,3.16-6.18,10.58-2.22,14.61-.5.66-1.14.39-1.75.25a23.76,23.76,0,0,1-18.07-19.54c-2-12.33,7-23.51,17.58-26.08,13.83-3.35,27.12,6.65,28.68,19.46.93,7.58-2.62,17.38-7.78,22.9-.24.27-2.37-3-3-5C216.83,53.78,217.76,53.52,217.68,53.27Z"/><path class="cls-3" d="M227,69.42c-1.29-1-1.16-4.69-2-6,.41,0-.24.37,0,0,1.9-2.84,1.36-8,3-11,2.25-4.12,4.28-6.63,6-11,1.95-4.94.68-9.79,0-15-.52-4,.5-5.21-1-9-5.48.45,3.7-2.83,3.81-3a35.92,35.92,0,0,1,6.21,15.12c2.33,12-1.06,22.55-8.57,31.93C233.08,63.19,227.92,69.35,227,69.42Z"/><path class="cls-3" d="M16.17,80.23C7.71,73,3.07,63.65,1.6,52.73A39.94,39.94,0,0,1,22.41,12.28a36.49,36.49,0,0,1,14.68-4,45,45,0,0,1,31,9.33,38.47,38.47,0,0,1,3.74,3.36c1.38,1.35,1.4,1.37,2.92.25a79.12,79.12,0,0,1,11.84-7.24A80.64,80.64,0,0,1,110,6.63a156.08,156.08,0,0,1,29.13-1.82A70.1,70.1,0,0,1,175,15.38c1.93,1.21,1.89,1.17,3.39-.58A39.51,39.51,0,0,1,203.12,1c6.33-1,12.57-.94,18.64,1.43a30,30,0,0,1,15.08,12c-.11.19-.37.44-.32.57a48.43,48.43,0,0,1,2.92,11.74,30,30,0,0,1-1.5,15.23,112.48,112.48,0,0,1-5.87,12.77c-1.64,3-3.68,5.75-5.58,8.59a1.25,1.25,0,0,1-1,.5A71.23,71.23,0,0,0,220,57.42c.32-.36,1.08-1,1.41-1.37,5.15-5.52,5.52-12,4.59-19.63-1.57-12.81-13.07-22.71-26.9-19.36-10.61,2.57-19.55,13.75-17.58,26.08a23.76,23.76,0,0,0,18.07,19.54c.61.14,1.25.41,1.75-.25a16.42,16.42,0,0,0,1.88,1.74c2.15,1.51,4.58,1.57,7,1.63a51.3,51.3,0,0,1,5.14,7.61c.4.75,1.86,2,1.61,3-.74,1.19-8.6,6-9.42,8.12a21.88,21.88,0,0,0-1.44,8.76A82.18,82.18,0,0,1,204.9,112c-2.09,10.57-4.51,21.09-6.75,31.64-.74,3.49-2.14,6.85-2.16,10.49a139.08,139.08,0,0,1-15.2,5c-6.48,1.63-27.24,5-28.61,5.06l-11.24.74a4.79,4.79,0,0,0-1.06,3.29,1.72,1.72,0,0,1-1,1.71,7.1,7.1,0,0,0-4.26,7.71,2.11,2.11,0,0,1-1,2.23,59.07,59.07,0,0,1-6.76.68l-13.9,0-.09-.05c-.92-4.92-2.55-9.65-3.85-14.47-.29-1.08-2.87-1.44-3.27-1.43-.75-.21-1.75-.21-3.27-.44-3.06-.46-11.82-1.13-13.09-1.45a97,97,0,0,1-13.21-3.19c-10.48-3.49-20.31-8.39-30-13.59-.52-.28-.78-.77-1.21-1.12-.85-2.24-1.78-4.45-2.55-6.71C39,128,37.61,117.48,37.21,106.84a140.56,140.56,0,0,1,.16-16.29c.06-.74-.09-1.18-.91-1.36-2.64-.59-5.27-1.25-7.9-1.88a22.39,22.39,0,0,1,5.1-11.92,14.79,14.79,0,0,0,3-.27c3-.81,4.65-3,6.12-5.49a19.33,19.33,0,0,0,11.46-5.48c6-5.67,8.73-12.62,7.42-21A22.75,22.75,0,0,0,53,28.31a23.38,23.38,0,0,0-29.62.78,23,23,0,0,0-8.12,18.68A21.79,21.79,0,0,0,19,59.48c1.4,2.09,2.76,4.32,5.26,5.38a3.11,3.11,0,0,1-.49,1.78,23.52,23.52,0,0,0-5.46,8C17.54,76.52,16.88,78.38,16.17,80.23Zm60.22-.59a.44.44,0,0,0-.31.5c-.21.51-.46,1-.64,1.55a12.33,12.33,0,0,0,8.19,16,12.09,12.09,0,0,0,7.52-.21,12.37,12.37,0,1,0-9.86-22.61,8.49,8.49,0,0,0-4.83,4.61Zm77-5.72a1.11,1.11,0,0,0-.88.28,12.4,12.4,0,0,0,8.1,22.15,12.39,12.39,0,0,0,.67-24.71c-2.87-.26-5.72.08-7.93,2.32Zm-25.24,72c1.2,1,2.21,1.89,3.27,2.74a13.31,13.31,0,0,0,9.53,2.83,34,34,0,0,0,15-4.92c4.54-2.82,7.68-6.7,8.68-12.08a8.88,8.88,0,0,0-1.28-6.44c-.5-.82-1.05-2.15-2.22-1.76-.92.31-.39,1.57-.42,2.41a16.5,16.5,0,0,0,.14,2.63,9.85,9.85,0,0,1-.74,4.92,13.84,13.84,0,0,1-5.25,6.38,31.49,31.49,0,0,1-12.66,4.83c-4.73.86-8.23-1.07-11.23-4.41a2.66,2.66,0,0,1-.87-2.36,38.43,38.43,0,0,0,.2-7.66c-.14-3.67-.4-7.34-.6-11a2.1,2.1,0,0,1,.68-2.11c4-3.3,6-7.74,7.15-12.69a8.93,8.93,0,0,0,.24-3.64,4.52,4.52,0,0,0-5-3.56c-6,.66-12,1.45-17.94,2.32a3.6,3.6,0,0,0-2.66,5.4c2.75,5.32,6.32,9.83,12.18,12a1.86,1.86,0,0,1,1.36,1.94c.19,3.11.5,6.21.64,9.32q.16,3.84,0,7.68c-.11,3.91-1.9,6.63-5.77,7.89a30.22,30.22,0,0,1-15.11,1.31c-5.35-1-7.94-3.56-9-8.92-.41-2.2-.71-4.42-1.14-6.61-.13-.66-.14-1.66-1-1.74-1-.09-1.16,1-1.4,1.68-2.65,7.55,1.89,16.62,9.55,18.84,6.51,1.89,13,1.25,19.32-.93A12.48,12.48,0,0,0,128.13,145.92Z"/><path d="M238,96.32a129.17,129.17,0,0,0-9.15-26.17c-.36-.79-2.58-5-3.42-6.35-1.51-2.26-8.29-10-8.43-9.38-.53,2.52-1,7.9-3,9.46a9.78,9.78,0,0,1-2.44,1.22c-.7.3-1.64.37-1.18,1a59.87,59.87,0,0,1,5,7.34c.4.75,1.54,2.93,1.73,3.37a116.64,116.64,0,0,1,8.18,24.46c2.24,11.38.75,22.42-3,33.23a41.47,41.47,0,0,1-17.49,22.08c-.7.53-1.4,1-2.12,1.51a85,85,0,0,1-11.52,6.28,173.15,173.15,0,0,1-29.69,10.43l-4.8,1.33-.08,0c-4.91,1-9.82,2-14.79,2.7-.6.08-1.21.11-1.82.16l-.15,0a47.9,47.9,0,0,1-6.2.86c-2.15.26-20.75.66-20.75.66l-2.84-.11a84.58,84.58,0,0,1-14-1.7c-2-.34-11.91-2.73-13-3.07a64.58,64.58,0,0,1-15.73-7.1c-.53-.33-3.51-2.36-4.44-3.06A109.55,109.55,0,0,1,43.2,145.84c-.09-.11-11.71-17.17-14-27.37-2.22-9.88-2.17-19.79-1-29.76a14.25,14.25,0,0,1,.34-1.4C29,83.5,34.24,76.16,36.4,73.07c.47-.67-3.8,2.25-4.61,2.08a9.17,9.17,0,0,1-7.07-6.42,2.38,2.38,0,0,1-.11-.38c-.21-.92-.57-3-1.21-2.28a36.2,36.2,0,0,0-5.11,8.61c-.73,1.81-1.39,3.65-2.09,5.47a1.09,1.09,0,0,0-.05.17A97.45,97.45,0,0,0,14,102.59c.13,16.14,4.11,31.1,13.4,44.46a135.54,135.54,0,0,0,23.37,26A80.14,80.14,0,0,0,83.48,189.7L88.55,191c14.85,4.11,48.48,2.46,56.25.92,1.8-.36,15-3,17.89-3.45l.12,0,4-1.15a192.68,192.68,0,0,0,29.85-10.62,154.68,154.68,0,0,0,15-8.23l.1-.06,6.25-4.66a.4.4,0,0,0,.12-.1c.5-.48,1-1,1.48-1.43a50.84,50.84,0,0,0,11.5-14.63C239.32,131.27,241.92,114.21,238,96.32Z"/><path class="cls-4" d="M24.24,64.86c-2.5-1.06-3.86-3.29-5.26-5.38a21.79,21.79,0,0,1-3.77-11.71,23,23,0,0,1,8.12-18.68A23.38,23.38,0,0,1,53,28.31,22.75,22.75,0,0,1,61.69,43.2c1.31,8.33-1.42,15.28-7.42,21a19.33,19.33,0,0,1-11.46,5.48c.15-.62.33-1.23.46-1.86a9.56,9.56,0,0,0-11.5-11.21C27.38,57.59,25.07,60.56,24.24,64.86Z"/><path class="cls-4" d="M84.43,134c-1.15-15.07,19.66-28.6,42.75-28.67,22.18-.07,43.62,12.68,43.22,29-.39,15.79-19.43,28.56-43,28.75C104.1,163.26,83,149.45,84.43,134Z"/><path class="cls-5" d="M128.13,145.92a12.48,12.48,0,0,1-6.21,4.25c-6.34,2.18-12.81,2.82-19.32.93-7.66-2.22-12.2-11.29-9.55-18.84.24-.7.38-1.77,1.4-1.68.85.08.86,1.08,1,1.74.43,2.19.73,4.41,1.14,6.61,1,5.36,3.6,7.93,9,8.92a30.22,30.22,0,0,0,15.11-1.31c3.87-1.26,5.66-4,5.77-7.89q.12-3.84,0-7.68c-.14-3.11-.45-6.21-.64-9.32a1.86,1.86,0,0,0-1.36-1.94c-5.86-2.14-9.43-6.65-12.18-12a3.6,3.6,0,0,1,2.66-5.4c6.09-.89,12.19-1.7,18.3-2.36,2.95-.32,4.27,1,4.65,3.92a9.52,9.52,0,0,1-.29,3.32c-1.11,5-3.16,9.39-7.15,12.69a2.1,2.1,0,0,0-.68,2.11c.2,3.67.46,7.34.6,11a38.43,38.43,0,0,1-.2,7.66,2.66,2.66,0,0,0,.87,2.36c3,3.34,6.5,5.27,11.23,4.41a31.49,31.49,0,0,0,12.66-4.83,13.84,13.84,0,0,0,5.25-6.38,9.85,9.85,0,0,0,.74-4.92,16.5,16.5,0,0,1-.14-2.63c0-.84-.5-2.1.42-2.41,1.17-.39,1.72.94,2.22,1.76a8.88,8.88,0,0,1,1.28,6.44c-1,5.38-4.14,9.26-8.68,12.08a34,34,0,0,1-15.37,5,12.62,12.62,0,0,1-9.16-2.86C130.34,147.81,129.33,146.92,128.13,145.92Z"/><path class="cls-3" d="M197.39,153.59c.25-.09.5-.16.75-.23l.33-.14c.13-.2.26-.39.38-.59a77.61,77.61,0,0,0,6.72-13.77c6.59-17.63,8.43-35.84,6.65-54.49a17.28,17.28,0,0,0-.8-5.18c-2.07,1.21-4.57,2.15-5.39,4.23a31.17,31.17,0,0,0-2,10c.14,7,.37,13.2-1,20-2,10-3.88,20-6,30-.74,3.5-4,5-1,10.74C196,154.17,196.82,153.79,197.39,153.59Z"/><path d="M106.19,166.45a8.72,8.72,0,0,1-.41-1.82,11.72,11.72,0,0,0,1.19,0,1.74,1.74,0,0,1,2.08,1.48c1.3,4.82,2.93,9.55,3.85,14.47l-2.84-.11C109.6,178.46,107,169.16,106.19,166.45Z"/><circle class="cls-5" cx="160.03" cy="84.42" r="13"/><circle class="cls-5" cx="87.03" cy="86.42" r="13"/><circle class="cls-1" cx="83.53" cy="83.92" r="6.5"/><ellipse class="cls-1" cx="115.53" cy="105.92" rx="2.5" ry="1.5"/><ellipse class="cls-1" cx="115.53" cy="105.92" rx="2.5" ry="1.5"/><circle class="cls-1" cx="156.53" cy="81.92" r="6.5"/><circle class="cls-6" cx="33.03" cy="66.42" r="11"/><circle class="cls-6" cx="208.03" cy="55.42" r="11"/><circle class="cls-6" cx="25.03" cy="186.42" r="19"/><circle class="cls-7" cx="25.03" cy="186.42" r="19.5"/></svg>